<?xml version="1.0" encoding="utf-8"?>
<!-- Generator: Adobe Illustrator 22.0.1, SVG Export Plug-In . SVG Version: 6.00 Build 0)  -->
<svg version="1.1" id="Layer_1" xmlns="http://www.w3.org/2000/svg" xmlns:xlink="http://www.w3.org/1999/xlink" x="0px" y="0px"
	 viewBox="0 0 1800 500" style="enable-background:new 0 0 1800 500;" xml:space="preserve">
<style type="text/css">
	.st0{fill:#C8202F;}
	.st1{fill:#F4E09C;}
	.st2{fill:#E2C676;}
	.st3{fill:#2A495B;}
	.st4{fill:#676767;}
	.st5{fill:#FFFFFF;}
</style>
<g>
	<path class="st0" d="M445.1,163.8l-83.2-83.2C316.3,35,243.5,31.3,193.5,72.2l-48,88v64l123.6,123.6c48.6,48.6,127.4,48.6,176,0
		c23.3-23.3,36.5-55,36.5-88v-8C481.5,218.7,468.4,187.1,445.1,163.8z M217.5,144.2c-13.3,0-24-10.7-24-24s10.7-24,24-24
		s24,10.7,24,24S230.8,144.2,217.5,144.2z"/>
	<path class="st1" d="M65.5,208.2v208l16,16v-200c0-4.4,3.6-8,8-8s8,3.6,8,8v208c0,2.1-0.8,4.2-2.3,5.7l10.3,10.3l40-40v-8l-24-24
		l24-24v-24l-24-24v-24l24-24v-56L65.5,208.2L65.5,208.2z"/>
	<path class="st2" d="M97.5,440.2v-208c0-4.4-3.6-8-8-8s-8,3.6-8,8v200l13.7,13.7C96.7,444.4,97.5,442.3,97.5,440.2z"/>
	<path class="st3" d="M177.5,48.2h-144c-8.8,0-16,7.2-16,16v128c0,8.8,7.2,16,16,16h144c8.8,0,16-7.2,16-16v-128
		C193.5,55.4,186.4,48.2,177.5,48.2z M137.5,128.2h-64c-13.3,0-24-10.7-24-24s10.7-24,24-24h64c13.3,0,24,10.7,24,24
		S150.8,128.2,137.5,128.2z"/>
	<path class="st4" d="M217.5,128.2c-0.6,0-1.2-0.1-1.7-0.2l-72-16c-4.3-0.9-7.1-5.1-6.2-9.4c0.9-4.3,5.1-7.1,9.4-6.2
		c0.1,0,0.2,0,0.3,0.1l72,16c4.3,1,7,5.2,6.1,9.6C224.5,125.6,221.3,128.2,217.5,128.2z"/>
	<polygon class="st5" points="340.8,180.6 304.4,207 286.6,144.2 286.2,260.5 322.6,234.1 340.5,296.9 	"/>
</g>
<g>
	<path class="st3" d="M610.7,212.5c9.7-5.8,21.5-8.8,35.3-8.8v20.8h-6.3c-14.4,0-26.4,3.9-35.9,11.6c-9.5,7.8-14.2,20.4-14.2,37.9
		V356h-19.4V206.5h19.4v30.9C594,226.6,601.1,218.3,610.7,212.5z"/>
	<path class="st3" d="M784.4,331.9c9.1-6.8,14.6-15.9,16.4-27.4h20.3c-2.7,15.9-10.3,28.8-22.7,38.6c-12.4,9.9-28.1,14.8-47.1,14.8
		c-14.2,0-26.9-3.1-37.9-9.2c-11-6.1-19.7-15-25.9-26.6c-6.2-11.6-9.3-25.2-9.3-40.9c0-15.7,3.1-29.3,9.3-40.9
		c6.2-11.6,14.8-20.4,25.9-26.6c11-6.1,23.7-9.2,37.9-9.2c14.6,0,27.2,3.1,37.9,9.2c10.7,6.1,18.8,14.3,24.4,24.5
		c5.6,10.2,8.4,21.4,8.4,33.4c0,5.1-0.4,9.8-1.1,14H697c0.2,12.6,2.8,23.1,7.8,31.6c5,8.5,11.5,14.7,19.6,18.8c8,4,16.7,6,26,6
		C763.9,342,775.2,338.6,784.4,331.9z M724.7,226.2c-8,4-14.6,10.2-19.6,18.5c-5,8.3-7.7,18.7-8.1,31.1h105.7
		c0.7-12.2-1.3-22.5-6-30.9c-4.8-8.4-11.1-14.6-19.2-18.6c-8-4-16.8-6-26.3-6C741.6,220.1,732.7,222.2,724.7,226.2z"/>
	<path class="st3" d="M987.2,220.3c10.9,11,16.3,27.2,16.3,48.6V356h-18.9v-85.7c0-16.2-4.1-28.7-12.3-37.4
		c-8.2-8.7-19.4-13-33.7-13c-15,0-26.9,4.8-35.7,14.4c-8.9,9.6-13.3,23.7-13.3,42.3V356h-19.4V206.5h19.4v36.7
		c3.8-12.8,10.8-22.5,20.8-29.3c10-6.8,21.5-10.1,34.5-10.1C962.2,203.7,976.3,209.2,987.2,220.3z"/>
	<path class="st3" d="M1125.6,339v17h-17.8c-14.4,0-25.2-3.4-32.3-10.3s-10.7-18.4-10.7-34.6v-87.9h-22.7v-16.7h22.7v-37.8h19.4
		v37.8h41.1v16.7h-41.1v88.2c0,10.6,1.9,17.8,5.8,21.8c3.8,3.9,10.6,5.9,20.3,5.9H1125.6z"/>
	<path class="st0" d="M1241.2,182.4c-7.7,0-13.2,1.6-16.7,4.9c-3.5,3.3-5.4,8.6-5.8,15.9h27.7v39.4h-27.7V356h-46.8V242.6h-18.3
		v-39.4h18.3v-1.6c0-19,5.5-33.6,16.6-44c11-10.3,27.1-15.5,48.1-15.5c4.4,0,7.7,0.1,9.9,0.3v40.3L1241.2,182.4z"/>
	<path class="st0" d="M1368.8,209.2c8.4,5.3,14.6,12.5,18.6,21.6v-27.7h46.6V356h-46.6v-27.7c-4,9.1-10.2,16.3-18.6,21.6
		c-8.4,5.3-18.4,7.9-30.1,7.9c-12.6,0-23.9-3.1-33.8-9.4c-10-6.3-17.8-15.4-23.6-27.2c-5.8-11.9-8.6-25.7-8.6-41.6
		c0-16.1,2.9-30,8.6-41.8c5.8-11.8,13.6-20.8,23.6-27.1c9.9-6.3,21.2-9.4,33.8-9.4C1350.3,201.3,1360.4,203.9,1368.8,209.2z
		 M1329.5,252.2c-6.1,6.6-9.2,15.7-9.2,27.4c0,11.7,3.1,20.8,9.2,27.4c6.1,6.6,14.2,9.9,24.2,9.9c9.9,0,17.9-3.4,24.2-10.1
		c6.3-6.8,9.4-15.8,9.4-27.1c0-11.5-3.1-20.6-9.4-27.2c-6.3-6.7-14.4-10-24.2-10C1343.7,242.3,1335.6,245.6,1329.5,252.2z"/>
	<path class="st0" d="M1582,215.8c11.6,9.7,18.8,22.5,21.8,38.3h-43.8c-1.3-6.2-4.2-11.1-8.6-14.7c-4.5-3.6-10.1-5.3-16.8-5.3
		c-5.3,0-9.3,1.1-12,3.4c-2.7,2.3-4.1,5.5-4.1,9.7c0,4.8,2.5,8.3,7.5,10.7c5,2.4,12.9,4.7,23.7,7.1c11.7,2.7,21.3,5.5,28.8,8.4
		c7.5,2.8,14,7.4,19.4,13.8c5.5,6.4,8.2,15,8.2,25.7c0,8.8-2.4,16.5-7.1,23.3c-4.8,6.8-11.6,12-20.5,15.9
		c-8.9,3.8-19.5,5.8-31.8,5.8c-20.6,0-37.2-4.6-49.6-13.7c-12.4-9.1-20-22.2-22.7-39.2h45.2c0.7,6.6,3.5,11.6,8.4,15.1
		c4.8,3.5,11.1,5.2,18.8,5.2c5.3,0,9.3-1.2,12-3.7c2.7-2.5,4.1-5.7,4.1-9.7c0-5.3-2.5-9.1-7.5-11.4c-5-2.3-13.2-4.7-24.5-7.3
		c-11.3-2.4-20.6-4.9-27.9-7.7c-7.3-2.7-13.6-7.2-18.9-13.3c-5.3-6.1-7.9-14.5-7.9-25.1c0-13.7,5.2-24.8,15.6-33.3
		c10.4-8.5,25.1-12.7,44.1-12.7C1554.9,201.3,1570.4,206.1,1582,215.8z"/>
	<path class="st0" d="M1732.2,315.7V356h-21.1c-17.9,0-31.8-4.4-41.8-13.3c-10-8.9-14.9-23.5-14.9-44v-56.1h-20.5v-39.4h20.5v-37.5
		h46.8v37.5h30.7v39.4h-30.7v57c0,6,1.2,10.2,3.7,12.6c2.5,2.4,6.6,3.6,12.5,3.6H1732.2z"/>
</g>
</svg>
